<?xml version="1.0" encoding="iso-8859-1"?>
<!-- Generator: Adobe Illustrator 23.0.1, SVG Export Plug-In . SVG Version: 6.00 Build 0)  -->
<svg version="1.1" xmlns="http://www.w3.org/2000/svg" xmlns:xlink="http://www.w3.org/1999/xlink" x="0px" y="0px"
	 viewBox="0 0 28 28" style="enable-background:new 0 0 28 28;" xml:space="preserve">
<g>
	<g>
		<path style="fill:#21EDED;" d="M77.983,4.678c-17.037,3.72-32.516,12.117-44.946,24.368c-6.398-6.299-13.641-11.613-21.569-15.809
			l-4.254-2.248v57.793h74.28V3.907L77.983,4.678z M33.037,37.449c2.984,3.367,5.72,6.971,8.154,10.773
			c-3.129,3.79-5.859,7.864-8.154,12.181c-2.301-4.323-5.03-8.403-8.159-12.187C27.317,44.414,30.053,40.81,33.037,37.449z
			 M13.01,20.765c5.807,3.506,11.173,7.678,16.023,12.471c-2.961,3.292-5.691,6.815-8.154,10.518
			c-2.445-2.521-5.076-4.868-7.87-7.012V20.765z M13.01,44.246c1.646,1.455,3.222,2.99,4.711,4.595
			c-1.744,3.037-3.326,6.183-4.711,9.405V44.246z M17.315,62.987c1.281-3.228,2.753-6.38,4.41-9.428
			c2.312,2.973,4.358,6.125,6.125,9.428H17.315z M38.218,62.987c1.773-3.303,3.819-6.456,6.125-9.428
			c1.663,3.048,3.135,6.201,4.416,9.428H38.218z M75.7,62.987h-20.74c-1.796-4.885-4.016-9.625-6.612-14.14
			c7.557-8.136,16.927-14.238,27.352-17.831V62.987z M45.189,43.754c-2.457-3.703-5.187-7.221-8.148-10.518
			C47.843,22.573,61.102,15.016,75.7,11.18v13.74C64.11,28.565,53.661,35.021,45.189,43.754z"/>
	</g>
</g>
</svg>
